<?xml version="1.0" encoding="UTF-8" standalone="no"?>
<!-- Created by diasvg.py -->
<svg width="24.647cm" height="12.797cm" viewBox="3.465 3.950 28.112 16.747"
 xmlns="http://www.w3.org/2000/svg"
 xmlns:xlink="http://www.w3.org/1999/xlink">
<rect x="10.000" y="5.000" width="10.000" height="1.000" fill="#FFFFFF" stroke="none" stroke-width="0"/>
<rect x="10.000" y="5.000" width="10.000" height="1.000" fill="none" stroke="#000000" stroke-width="0.100" />
<rect x="20.000" y="7.000" width="8.000" height="1.000" fill="#E5E5E5" stroke="none" stroke-width="0"/>
<rect x="20.000" y="7.000" width="8.000" height="1.000" fill="none" stroke="#000000" stroke-width="0.100" />
<rect x="10.000" y="11.000" width="2.000" height="1.000" fill="#FFFFFF" stroke="none" stroke-width="0"/>
<rect x="10.000" y="11.000" width="2.000" height="1.000" fill="none" stroke="#000000" stroke-width="0.100" />
<rect x="12.000" y="13.000" width="1.600" height="1.000" fill="#E5E5E5" stroke="none" stroke-width="0"/>
<rect x="12.000" y="13.000" width="1.600" height="1.000" fill="none" stroke="#000000" stroke-width="0.100" />
<rect x="12.000" y="11.000" width="2.000" height="1.000" fill="#FFFFFF" stroke="none" stroke-width="0"/>
<rect x="12.000" y="11.000" width="2.000" height="1.000" fill="none" stroke="#000000" stroke-width="0.100" />
<rect x="14.000" y="11.000" width="2.000" height="1.000" fill="#FFFFFF" stroke="none" stroke-width="0"/>
<rect x="14.000" y="11.000" width="2.000" height="1.000" fill="none" stroke="#000000" stroke-width="0.100" />
<rect x="16.000" y="11.000" width="2.000" height="1.000" fill="#FFFFFF" stroke="none" stroke-width="0"/>
<rect x="16.000" y="11.000" width="2.000" height="1.000" fill="none" stroke="#000000" stroke-width="0.100" />
<rect x="18.000" y="11.000" width="2.000" height="1.000" fill="#FFFFFF" stroke="none" stroke-width="0"/>
<rect x="18.000" y="11.000" width="2.000" height="1.000" fill="none" stroke="#000000" stroke-width="0.100" />
<rect x="14.000" y="13.000" width="1.600" height="1.000" fill="#E5E5E5" stroke="none" stroke-width="0"/>
<rect x="14.000" y="13.000" width="1.600" height="1.000" fill="none" stroke="#000000" stroke-width="0.100" />
<rect x="16.000" y="13.000" width="1.600" height="1.000" fill="#E5E5E5" stroke="none" stroke-width="0"/>
<rect x="16.000" y="13.000" width="1.600" height="1.000" fill="none" stroke="#000000" stroke-width="0.100" />
<rect x="18.000" y="13.000" width="1.600" height="1.000" fill="#E5E5E5" stroke="none" stroke-width="0"/>
<rect x="18.000" y="13.000" width="1.600" height="1.000" fill="none" stroke="#000000" stroke-width="0.100" />
<line x1="12.000" y1="10.000" x2="12.000" y2="15.000" stroke="#4D4D4D" stroke-width="0.100" />
<line x1="14.000" y1="10.000" x2="14.000" y2="15.000" stroke="#4D4D4D" stroke-width="0.100" />
<line x1="16.000" y1="10.000" x2="16.000" y2="15.000" stroke="#4D4D4D" stroke-width="0.100" />
<line x1="18.000" y1="10.000" x2="18.000" y2="15.000" stroke="#4D4D4D" stroke-width="0.100" />
<line x1="20.000" y1="4.000" x2="20.000" y2="9.000" stroke="#4D4D4D" stroke-width="0.100" />
<text x="9.000" y="5.676"  fill="#000000" text-anchor="end" font-size="0.63" font-family="sans" font-style="normal" font-weight="400">
Read from device #1:</text>
<text x="9.000" y="7.676"  fill="#000000" text-anchor="end" font-size="0.63" font-family="sans" font-style="normal" font-weight="400">
Write to device #2:</text>
<text x="9.000" y="11.676"  fill="#000000" text-anchor="end" font-size="0.63" font-family="sans" font-style="normal" font-weight="400">
Read from device #1:</text>
<text x="9.000" y="13.676"  fill="#000000" text-anchor="end" font-size="0.63" font-family="sans" font-style="normal" font-weight="400">
Write to device #2:</text>
<line x1="10.000" y1="16.000" x2="27.450" y2="16.000" stroke="#000000" stroke-width="0.100" />
<polygon fill="#000000" stroke="none" stroke-width="0.100" points="27.450,16.250 27.950,16.000 27.450,15.750 "/>
<polygon fill="none" stroke="#000000" stroke-width="0.100"  points="27.450,16.250 27.950,16.000 27.450,15.750 "/>
<text x="18.000" y="16.595"  fill="#000000" text-anchor="start" font-size="0.80" font-family="sans" font-style="normal" font-weight="400">
Time</text>
<line x1="20.000" y1="10.000" x2="20.000" y2="15.000" stroke="#4D4D4D" stroke-width="0.100" />
<rect x="20.000" y="13.000" width="1.600" height="1.000" fill="#E5E5E5" stroke="none" stroke-width="0"/>
<rect x="20.000" y="13.000" width="1.600" height="1.000" fill="none" stroke="#000000" stroke-width="0.100" />
</svg>